<?xml version="1.0" encoding="UTF-8"?> <svg xmlns="http://www.w3.org/2000/svg" width="632" height="372" viewBox="0 0 632 372" fill="none"> <path d="M587.978 336.381C587.978 341.831 583.527 346.237 578.07 346.237H42.857C37.4 346.237 32.9491 341.792 32.9491 336.381L28.498 29.2162C28.498 23.7662 34.923 13.1761 46.649 13.9871L569.749 0.459147C576.561 0.266147 583.179 2.89415 588.017 7.72614C592.854 12.5571 595.486 19.1281 595.331 25.9311L587.978 336.381Z" fill="url(#paint0_linear)"></path> <path d="M578.225 326.913C578.225 332.054 574.006 336.267 568.859 336.267H55.7832C50.6362 336.267 46.4172 332.054 46.4172 326.913L42.1992 48.0421C42.7022 31.2671 57.4092 25.2371 66.3492 25.5851L567.698 12.1341C572.497 12.0181 577.141 13.8351 580.547 17.2361C583.953 20.6371 585.811 25.2371 585.694 30.0301L578.225 326.913Z" fill="#FC76FF"></path> <path d="M578.225 326.913C578.225 332.054 574.006 336.267 568.859 336.267H55.7832C50.6362 336.267 46.4172 332.054 46.4172 326.913L42.1992 48.0421C42.7022 31.2671 57.4092 25.2371 66.3492 25.5851L567.698 12.1341C572.497 12.0181 577.141 13.8351 580.547 17.2361C583.953 20.6371 585.811 25.2371 585.694 30.0301L578.225 326.913Z" fill="url(#paint1_linear)"></path> <g opacity="0.24"> <path opacity="0.24" d="M51.9518 193.448C51.7578 193.448 51.5648 193.293 51.5648 193.061L51.2158 170.449C51.2158 170.217 51.3708 170.062 51.6028 170.062C51.8358 170.062 51.9898 170.217 51.9898 170.449L52.3388 193.061C52.3388 193.254 52.1838 193.448 51.9518 193.448Z" fill="#854CFF"></path> </g> <g opacity="0.24"> <path opacity="0.24" d="M51.1386 138.022C50.9456 138.022 50.7516 137.867 50.7516 137.635L49.4746 51.0168C49.5136 45.3348 51.2546 40.8127 54.6606 37.5267C60.8916 31.5357 70.6836 31.8448 71.1096 31.8838L231.221 27.5938C231.414 27.5938 231.608 27.7478 231.608 27.9798C231.608 28.2118 231.453 28.3668 231.221 28.3668L71.0706 32.6568C70.6446 32.6568 61.1626 32.3478 55.1636 38.1068C51.9126 41.2378 50.2486 45.5668 50.2096 51.0168L51.4876 137.635C51.5256 137.828 51.3716 138.022 51.1386 138.022Z" fill="#854CFF"></path> </g> <g opacity="0.24"> <path opacity="0.24" d="M69.019 311.453C69.561 288.416 69.3681 84.2975 68.0131 66.6725C66.6971 49.0465 94.176 45.7225 136.361 43.7515C178.547 41.7805 534.646 33.8955 543.819 33.1615C564.408 31.4995 568.704 62.2655 566.614 129.055C565.066 179.225 562.512 261.901 561.312 299.896C560.964 311.221 551.714 320.188 540.374 320.227C454.687 320.459 126.26 321.386 104.393 322.043C79.2751 322.778 68.787 320.574 69.019 311.453Z" fill="#854CFF"></path> </g> <path d="M617.895 371.751H13.9069C6.47691 371.751 0.399902 365.683 0.399902 358.262C0.399902 350.841 6.47691 344.773 13.9069 344.773H617.895C625.326 344.773 631.402 350.841 631.402 358.262C631.402 365.683 625.326 371.751 617.895 371.751Z" fill="#FC76FF"></path> <path d="M617.895 371.751H13.9069C6.47691 371.751 0.399902 365.683 0.399902 358.262C0.399902 350.841 6.47691 344.773 13.9069 344.773H617.895C625.326 344.773 631.402 350.841 631.402 358.262C631.402 365.683 625.326 371.751 617.895 371.751Z" fill="url(#paint2_linear)"></path> <path d="M516.302 291.198H112.134C106.599 291.198 102.226 286.483 102.226 280.492V73.2032C102.226 67.3662 106.599 62.7282 112.134 62.6122V62.9992V62.6122L516.263 55.0752C519.011 55.0372 521.642 56.1192 523.616 58.1292C525.629 60.1772 526.79 62.9222 526.79 65.6662V280.492C526.79 286.29 521.991 291.198 516.302 291.198ZM516.418 55.8482C516.379 55.8482 516.302 55.8482 516.263 55.8482L112.173 63.3852C107.025 63.4632 103 67.7922 103 73.2032V280.492C103 286.058 107.025 290.425 112.134 290.425H516.302C521.565 290.425 526.016 285.864 526.016 280.492V65.6662C526.016 63.1152 524.932 60.5642 523.074 58.6702C521.255 56.8532 518.933 55.8482 516.418 55.8482Z" fill="white"></path> <path d="M371.981 99.0971C371.981 94.8071 368.498 91.3281 364.202 91.3281H127.421C123.125 91.3281 119.642 94.8071 119.642 99.0971V239.712C119.642 244.002 123.125 247.481 127.421 247.481H364.202C368.498 247.481 371.981 244.002 371.981 239.712V99.0971Z" fill="url(#paint3_linear)"></path> <path d="M483.946 142.777H398.221C392.183 142.777 389.01 137.946 389.01 133.192V100.608C389.01 95.8153 392.183 90.9453 398.221 90.9453H483.946C489.752 90.9453 495.054 95.5453 495.054 100.608V133.192C495.054 138.216 489.752 142.777 483.946 142.777ZM398.221 91.7573C392.686 91.7573 389.784 96.2023 389.784 100.647V133.23C389.784 137.598 392.686 142.043 398.221 142.043H483.946C489.365 142.043 494.28 137.83 494.28 133.23V100.647C494.28 96.0093 489.365 91.7573 483.946 91.7573H398.221Z" fill="white"></path> <path d="M483.946 208.098H398.221C392.803 208.098 389.01 204.31 389.01 198.86V166.277C389.01 161.445 392.222 156.305 398.221 156.305H483.946C489.674 156.305 495.054 161.136 495.054 166.277V198.86C495.054 203.769 489.868 208.098 483.946 208.098ZM398.221 157.078C392.725 157.078 389.784 161.832 389.784 166.277V198.86C389.784 203.846 393.267 207.325 398.221 207.325H483.946C489.442 207.325 494.28 203.382 494.28 198.86V166.277C494.28 161.561 489.249 157.078 483.946 157.078H398.221Z" fill="white"></path> <path d="M483.946 273.422H398.221C392.725 273.422 389.01 269.828 389.01 264.533V231.949C389.01 227.118 392.222 222.016 398.221 222.016H483.946C489.674 222.016 495.054 226.847 495.054 231.949V264.533C495.054 269.828 489.287 273.422 483.946 273.422ZM398.221 222.789C392.725 222.789 389.784 227.504 389.784 231.949V264.533C389.784 269.403 393.19 272.649 398.221 272.649H483.946C488.939 272.649 494.28 269.364 494.28 264.533V231.949C494.28 227.234 489.249 222.789 483.946 222.789H398.221Z" fill="white"></path> <path opacity="0.5" d="M281.921 257.92C257.809 257.843 148.553 257.611 124.402 257.843C121.809 257.881 119.642 259.968 119.642 262.558V265.186C119.642 267.776 121.5 269.863 124.054 269.902L281.34 273.497C282.617 273.535 284.359 273.033 285.249 272.144C286.178 271.255 287.184 270.018 287.184 268.742V262.558C287.223 260.046 284.552 257.959 281.921 257.92Z" fill="white"></path> <path d="M526.403 77.4566H102.613C102.381 77.4566 102.226 77.3016 102.226 77.0696C102.226 76.8376 102.381 76.6836 102.613 76.6836H526.403C526.635 76.6836 526.79 76.8376 526.79 77.0696C526.79 77.2626 526.596 77.4566 526.403 77.4566Z" fill="white"></path> <path d="M475.509 71.2723H474.696C472.258 71.2723 470.246 69.3013 470.246 66.8273V66.0153C470.246 63.5803 472.219 61.5703 474.696 61.5703H475.509C477.947 61.5703 479.96 63.5423 479.96 66.0153V66.8273C479.96 69.2623 477.986 71.2723 475.509 71.2723ZM474.696 62.3823C472.684 62.3823 471.02 64.0053 471.02 66.0543V66.8663C471.02 68.8753 472.645 70.5373 474.696 70.5373H475.509C477.522 70.5373 479.186 68.9143 479.186 66.8663V66.0543C479.186 64.0443 477.56 62.3823 475.509 62.3823H474.696Z" fill="white"></path> <path d="M493.7 71.2723H492.887C490.449 71.2723 488.436 69.3013 488.436 66.8273V66.0153C488.436 63.5803 490.41 61.5703 492.887 61.5703H493.7C496.138 61.5703 498.15 63.5423 498.15 66.0153V66.8273C498.15 69.2623 496.176 71.2723 493.7 71.2723ZM492.887 62.3823C490.874 62.3823 489.21 64.0053 489.21 66.0543V66.8663C489.21 68.8753 490.836 70.5373 492.887 70.5373H493.7C495.712 70.5373 497.376 68.9143 497.376 66.8663V66.0543C497.376 64.0443 495.751 62.3823 493.7 62.3823H492.887Z" fill="white"></path> <path d="M513.051 71.2723H512.238C509.8 71.2723 507.787 69.3013 507.787 66.8273V66.0153C507.787 63.5803 509.761 61.5703 512.238 61.5703H513.051C515.489 61.5703 517.501 63.5423 517.501 66.0153V66.8273C517.501 69.2623 515.528 71.2723 513.051 71.2723ZM512.238 62.3823C510.225 62.3823 508.561 64.0053 508.561 66.0543V66.8663C508.561 68.8753 510.187 70.5373 512.238 70.5373H513.051C515.063 70.5373 516.727 68.9143 516.727 66.8663V66.0543C516.727 64.0443 515.102 62.3823 513.051 62.3823H512.238Z" fill="white"></path> <path d="M136.284 136.593C136.052 136.593 135.897 136.438 135.897 136.206V105.672C135.897 105.44 136.052 105.285 136.284 105.285H159.505C159.738 105.285 159.892 105.44 159.892 105.672C159.892 105.904 159.738 106.058 159.505 106.058H136.671V136.206C136.671 136.4 136.478 136.593 136.284 136.593Z" fill="white"></path> <path d="M354.952 136.593C354.719 136.593 354.565 136.438 354.565 136.206V106.058H331.73C331.498 106.058 331.343 105.904 331.343 105.672C331.343 105.44 331.498 105.285 331.73 105.285H354.952C355.184 105.285 355.339 105.44 355.339 105.672V136.206C355.339 136.4 355.145 136.593 354.952 136.593Z" fill="white"></path> <path d="M159.505 228.969H136.284C136.052 228.969 135.897 228.814 135.897 228.582V199.207C135.897 198.975 136.052 198.82 136.284 198.82C136.516 198.82 136.671 198.975 136.671 199.207V228.196H159.505C159.738 228.196 159.892 228.35 159.892 228.582C159.892 228.814 159.699 228.969 159.505 228.969Z" fill="white"></path> <path d="M354.952 228.969H331.73C331.498 228.969 331.343 228.814 331.343 228.582C331.343 228.35 331.498 228.196 331.73 228.196H354.565V199.207C354.565 198.975 354.719 198.82 354.952 198.82C355.184 198.82 355.339 198.975 355.339 199.207V228.582C355.339 228.775 355.145 228.969 354.952 228.969Z" fill="white"></path> <path d="M241.206 208.097H241.129C220.036 208.097 202.852 190.935 202.852 169.87V169.793C202.852 148.728 220.036 131.566 241.129 131.566H241.206C262.299 131.566 279.482 148.728 279.482 169.793V169.87C279.482 190.935 262.299 208.097 241.206 208.097ZM241.129 132.339C220.462 132.339 203.626 149.153 203.626 169.793V169.87C203.626 190.51 220.462 207.324 241.129 207.324H241.206C261.873 207.324 278.708 190.51 278.708 169.87V169.793C278.708 149.153 261.873 132.339 241.206 132.339H241.129Z" fill="white"></path> <path d="M230.137 189.586C229.054 189.586 228.163 188.735 228.125 187.615L227.196 153.176C227.157 152.055 227.699 150.973 228.666 150.354C229.634 149.736 230.795 149.659 231.84 150.122L265.898 166.047C267.02 166.588 267.756 167.67 267.756 168.907C267.794 170.144 267.137 171.265 266.014 171.845L235.943 187.846C234.975 188.388 233.736 188.001 233.195 186.996C232.653 186.03 233.04 184.793 234.046 184.252L262.724 168.984L231.221 154.297L232.111 187.46C232.15 188.581 231.26 189.509 230.137 189.547C230.176 189.586 230.137 189.586 230.137 189.586Z" fill="url(#paint4_linear)"></path> <path d="M432.666 189.542C432.666 190.586 431.814 191.436 430.769 191.436C429.725 191.436 428.873 190.586 428.873 189.542C428.873 188.499 429.725 187.648 430.769 187.648C431.814 187.648 432.666 188.499 432.666 189.542Z" fill="url(#paint5_linear)"></path> <defs> <linearGradient id="paint0_linear" x1="261.594" y1="322.636" x2="387.706" y2="-56.1918" gradientUnits="userSpaceOnUse"> <stop stop-color="#00255D"></stop> <stop offset="1" stop-color="#A9A9A9"></stop> </linearGradient> <linearGradient id="paint1_linear" x1="274.763" y1="-236.403" x2="-107.73" y2="94.4721" gradientUnits="userSpaceOnUse"> <stop stop-color="#816CFF"></stop> <stop offset="1" stop-color="white" stop-opacity="0"></stop> </linearGradient> <linearGradient id="paint2_linear" x1="270.406" y1="324.087" x2="265.111" y2="387.99" gradientUnits="userSpaceOnUse"> <stop stop-color="#2400FF"></stop> <stop offset="1" stop-color="white" stop-opacity="0"></stop> </linearGradient> <linearGradient id="paint3_linear" x1="259.702" y1="93.7471" x2="327.645" y2="-277.341" gradientUnits="userSpaceOnUse"> <stop stop-color="white"></stop> <stop offset="1" stop-color="#4F52FF"></stop> </linearGradient> <linearGradient id="paint4_linear" x1="227.191" y1="169.705" x2="267.771" y2="169.705" gradientUnits="userSpaceOnUse"> <stop stop-color="#DAE3FE"></stop> <stop offset="1" stop-color="#E9EFFD"></stop> </linearGradient> <linearGradient id="paint5_linear" x1="428.912" y1="189.555" x2="432.681" y2="189.555" gradientUnits="userSpaceOnUse"> <stop stop-color="#B56AFF"></stop> <stop offset="1" stop-color="#4F52FF"></stop> </linearGradient> </defs> </svg> 