<?xml version="1.0" encoding="UTF-8"?> <svg xmlns="http://www.w3.org/2000/svg" width="96" height="108" viewBox="0 0 96 108" fill="none"> <path d="M22.8032 51.8281L23.4998 62.2253C23.5772 63.153 24.3513 63.8101 25.2802 63.8101H31.2016V67.1341C31.2016 68.5642 31.1242 69.2213 32.5562 69.2213H36.3877L44.2055 69.3759L47.4178 51.8281H22.8032Z" fill="url(#paint0_linear)"></path> <path d="M32.208 51.8281L36.2717 69.4532L49.0822 69.6851C50.3981 69.7238 51.4817 68.7575 51.6752 67.4433L52.2558 63.1916L56.6291 63.269C59.7253 63.3076 62.3957 61.2204 63.015 58.1669L64.2921 51.8667H32.208V51.8281Z" fill="url(#paint1_linear)"></path> <path d="M79.9561 45.968L78.4276 18.5686C78.2366 14.867 75.1415 11.6996 71.4351 11.6996H51.9475V5.861C51.9475 4.67802 50.7631 3.53318 49.8843 2.73181C49.0054 1.93043 47.5151 1.51066 46.3306 1.58698L34.2178 2.3502C32.995 2.42652 31.7723 3.0371 31.0081 3.99111C30.2439 4.94513 29.8999 5.97549 30.1292 7.19663L30.9699 11.7377H18.5514C14.692 11.7377 12.5522 15.3249 12.5522 19.2173V46.3878C12.5522 50.2421 14.692 53.3331 18.5514 53.3331H72.8871C74.7976 53.3331 76.67 52.5699 77.9691 51.1961C79.3447 49.7078 80.0325 47.8761 79.9561 45.968Z" fill="url(#paint2_linear)"></path> <path d="M70.7552 27.8239C72.9999 27.8239 74.8189 26.0068 74.8189 23.7654C74.8189 21.524 72.9999 19.707 70.7552 19.707C68.5104 19.707 66.6914 21.524 66.6914 23.7654C66.6914 26.0068 68.5104 27.8239 70.7552 27.8239Z" fill="url(#paint3_linear)"></path> <path d="M45.5602 101.722C45.5602 104.312 42.9285 105.935 40.1806 105.935H40.1419C37.4327 105.935 36.2329 104.312 36.2329 101.722V62.1432C36.2329 59.5535 37.394 57.2344 40.1419 57.2344H40.1806C42.8898 57.2344 45.5602 59.5922 45.5602 62.1432V101.722Z" fill="#C6C8FF"></path> <path d="M35.6139 2.35156H28.8023C26.4801 2.35156 24.545 3.70437 24.4676 6.02347L24.1967 11.2414H7.98041C4.11018 11.2414 0.936584 14.6041 0.85918 18.4693L0.472157 46.1053C0.433455 47.9992 1.16882 49.8544 2.5234 51.2073C3.87798 52.5601 5.69698 53.3331 7.59339 53.3331H12.0055H46.257L35.6139 2.35156Z" fill="url(#paint4_linear)"></path> <path d="M57.6352 22.4136C56.8224 21.486 55.6227 20.9062 54.3842 20.9062H24.5061C22.1066 20.9062 20.0166 22.9161 20.0166 25.3125V40.9664C20.0166 43.3628 22.1066 45.2182 24.5061 45.2182H52.333C54.5003 45.2182 56.358 43.6334 56.6289 41.4689L58.6801 25.8151C58.8736 24.5782 58.4866 23.3412 57.6352 22.4136Z" fill="#80B0D2"></path> <path d="M57.6352 22.4136C56.8224 21.486 55.6227 20.9062 54.3842 20.9062H24.5061C22.1066 20.9062 20.0166 22.9161 20.0166 25.3125V40.9664C20.0166 43.3628 22.1066 45.2182 24.5061 45.2182H52.333C54.5003 45.2182 56.358 43.6334 56.6289 41.4689L58.6801 25.8151C58.8736 24.5782 58.4866 23.3412 57.6352 22.4136Z" fill="url(#paint5_linear)"></path> <g opacity="0.24"> <path opacity="0.24" d="M39.2518 10.6976C38.2456 10.6976 37.3941 10.0019 37.2006 9.03564L36.9684 7.83744C36.8523 7.219 37.0071 6.2527 37.3941 5.75022C37.7811 5.24775 38.4004 4.66797 39.0196 4.66797H47.6889C48.85 4.66797 50.6303 6.25269 50.6303 7.41225V7.76013C50.6303 8.84238 49.3918 9.73136 48.3469 9.84732L39.7162 10.7363C39.6001 10.6976 39.3292 10.6976 39.2518 10.6976ZM38.9809 5.44101C38.5164 5.44101 38.0907 5.86618 37.8198 6.21405C37.5489 6.56192 37.4328 7.14169 37.5102 7.60551L37.7424 8.88102C37.8972 9.61541 38.5939 10.1951 39.3679 10.1178L48.5017 9.26754C49.2757 9.19023 50.5529 8.57182 50.5529 7.76013V7.41225C50.5529 6.56191 48.463 5.44101 47.6115 5.44101H38.9809Z" fill="#D891FA"></path> </g> <path d="M67.1171 36.7513C67.1171 35.9782 67.388 31.6106 67.8137 31.456C68.2395 31.3014 74.5866 31.3787 74.5866 31.3787V36.7126H78.4568V41.3508H72.9612L73.2708 44.4429H67.6202L67.8525 40.4618L64.1758 41.3895V36.7126H67.1171V36.7513Z" fill="#80B0D2"></path> <path d="M67.1171 36.7513C67.1171 35.9782 67.388 31.6106 67.8137 31.456C68.2395 31.3014 74.5866 31.3787 74.5866 31.3787V36.7126H78.4568V41.3508H72.9612L73.2708 44.4429H67.6202L67.8525 40.4618L64.1758 41.3895V36.7126H67.1171V36.7513Z" fill="url(#paint6_linear)"></path> <path d="M57.558 103.773C57.558 106.17 55.1585 107.484 52.488 107.484H30.2342C27.5638 107.484 26.5962 106.208 26.5962 103.773V103.58C26.5962 101.184 27.5638 99.7148 30.2342 99.7148H52.488C55.1585 99.7148 57.558 101.184 57.558 103.58V103.773Z" fill="url(#paint7_linear)"></path> <path d="M57.2874 57.505C57.8679 57.3504 77.0256 73.7388 77.0256 73.7388L73.9294 75.1688L55.1587 61.7567C55.1587 61.7567 53.2236 58.6646 57.2874 57.505Z" fill="#C6C8FF"></path> <path d="M76.6383 71.4973C75.7095 70.8789 74.5097 70.9562 73.6583 71.6133C72.1489 72.8115 70.3686 74.7828 72.7681 76.4448C76.4061 79.0345 91.8096 91.519 93.9382 89.8569C96.0281 88.2722 99.6275 86.6102 76.6383 71.4973Z" fill="#C6C8FF"></path> <defs> <linearGradient id="paint0_linear" x1="22.8148" y1="60.5854" x2="33.1765" y2="60.602" gradientUnits="userSpaceOnUse"> <stop stop-color="#D651E1"></stop> <stop offset="1" stop-color="#441550"></stop> </linearGradient> <linearGradient id="paint1_linear" x1="47.8437" y1="56.3379" x2="44.3695" y2="96.9206" gradientUnits="userSpaceOnUse"> <stop></stop> <stop offset="1"></stop> </linearGradient> <linearGradient id="paint2_linear" x1="36.0347" y1="1.57812" x2="118.646" y2="130.476" gradientUnits="userSpaceOnUse"> <stop stop-color="#FB6EFE"></stop> <stop offset="1" stop-color="#6F0F91"></stop> </linearGradient> <linearGradient id="paint3_linear" x1="57.1474" y1="-34.2026" x2="68.7292" y2="15.2785" gradientUnits="userSpaceOnUse"> <stop stop-color="#392600"></stop> <stop offset="0.0001" stop-color="#390101"></stop> <stop offset="1" stop-color="#090056"></stop> </linearGradient> <linearGradient id="paint4_linear" x1="6.32523" y1="38.1182" x2="17.186" y2="80.1448" gradientUnits="userSpaceOnUse"> <stop stop-color="#FF6EF1"></stop> <stop offset="1" stop-color="#A337F1"></stop> </linearGradient> <linearGradient id="paint5_linear" x1="70.2012" y1="1.2439" x2="-0.517708" y2="66.1898" gradientUnits="userSpaceOnUse"> <stop stop-color="#FC6AFF"></stop> <stop offset="1" stop-color="white" stop-opacity="0"></stop> </linearGradient> <linearGradient id="paint6_linear" x1="70.2867" y1="21.3276" x2="56.9459" y2="28.8401" gradientUnits="userSpaceOnUse"> <stop stop-color="#FF45EC"></stop> <stop offset="1" stop-color="white" stop-opacity="0"></stop> </linearGradient> <linearGradient id="paint7_linear" x1="-29.3518" y1="116.969" x2="386.52" y2="38.2287" gradientUnits="userSpaceOnUse"> <stop stop-color="#FF6DC5"></stop> <stop offset="1" stop-color="#670F91"></stop> </linearGradient> </defs> </svg> 