<?xml version="1.0" encoding="UTF-8"?> <svg xmlns="http://www.w3.org/2000/svg" width="2756" height="1922" viewBox="0 0 2756 1922" fill="none"> <g clip-path="url(#clip0)"> <path d="M2755.99 0.808594H0.661133V1618.45H2755.99V0.808594Z" fill="#F36DFF"></path> <path d="M2755.99 0.808594H0.661133V1359.96H2755.99V0.808594Z" fill="#5B3CF7"></path> <path d="M2755.99 0.808594H0.661133V1359.96H2755.99V0.808594Z" fill="url(#paint0_linear)" fill-opacity="0.2"></path> <path d="M1739.04 1882V1921.33H929.989V1882C987.253 1882 1033.94 1837.85 1038.31 1781.74C1038.54 1778.98 1038.54 1775.99 1038.54 1773.23V1618.45H1630.26V1773.23C1630.26 1775.99 1630.49 1778.98 1630.49 1781.74C1632.56 1808.41 1644.29 1832.33 1662 1850.04C1681.78 1869.82 1708.91 1882 1739.04 1882Z" fill="#E476FF"></path> <g opacity="0.7"> <path opacity="0.7" d="M1630.26 1618.45H1038.54V1650.88H1630.26V1618.45Z" fill="#FF4BED"></path> </g> <g opacity="0.7"> <path opacity="0.7" d="M1739.04 1882.01H929.989C987.253 1882.01 1033.94 1837.85 1038.31 1781.74H1630.72C1632.79 1808.41 1644.52 1832.33 1662.23 1850.04C1681.78 1869.82 1708.91 1882.01 1739.04 1882.01Z" fill="#FF4BED"></path> </g> <g opacity="0.1"> <path opacity="0.1" d="M717.472 94.4297H143.225V668.677H717.472V94.4297Z" fill="#DDE7FE"></path> </g> <g opacity="0.1"> <path opacity="0.1" d="M717.472 731.922H143.225V1255.11H717.472V731.922Z" fill="#DDE7FE"></path> </g> <g opacity="0.1"> <path opacity="0.1" d="M2678.47 797.926H828.78V1255.34H2678.47V797.926Z" fill="#DDE7FE"></path> </g> <path d="M2011.08 94.4297H828.78V741.349H2011.08V94.4297Z" fill="#EBF2F9"></path> <path d="M1954.97 271.054V741.583H828.78V390.181H870.866V412.029H905.362V399.38H937.328V349.246H953.197V325.788H955.726V349.246H994.132V305.091H997.812V349.016H1023.11V348.326V342.807V337.517V328.778V323.259V314.29V308.77V300.031V294.052V285.313V277.494V268.755V263.005H1030.7V256.336H1031.85V263.005H1087.73V256.336H1088.88V263.005H1099V309H1106.13V300.261V294.282V285.543V279.563V270.824H1173.97H1185.7C1186.39 271.054 1186.85 271.284 1187.54 271.514V321.189H1236.99V386.962H1277V265.305H1285.74V256.796H1287.35V265.305H1318.86V256.796H1320.47V265.305H1365.31V256.796H1366.92V265.305H1395.21V256.796H1396.82V265.305H1408.32V378.913H1452.47V360.515L1504.68 360.745V330.848H1515.25V324.869H1516.63V330.848H1556.88H1564.93V324.869H1566.31V330.848H1575.97V390.181H1638.06V412.029H1672.56V399.38H1704.52V349.246H1720.39V325.788H1722.69V349.246H1761.1V305.091H1764.78V349.016H1790.07V348.326V342.807V337.517V328.778V323.259V314.29V308.77V300.031V294.052V285.313V277.494V268.755V263.005H1797.66V256.336H1798.81V263.005H1854.7V256.336H1855.85V263.005H1865.97V309H1873.1V300.261V294.282V285.543V279.563V270.824H1940.94H1952.67C1953.82 270.594 1954.28 270.824 1954.97 271.054Z" fill="#D5E5FB"></path> <path d="M1408.32 265.301H1308.28V284.619H1408.32V265.301Z" fill="#E2EEFD"></path> <path d="M1837.45 262.77H1790.76V274.498H1837.45V262.77Z" fill="#E2EEFD"></path> <path d="M1837.45 280.938H1790.76V292.667H1837.45V280.938Z" fill="#E2EEFD"></path> <path d="M1837.45 299.34H1790.76V311.069H1837.45V299.34Z" fill="#E2EEFD"></path> <path d="M1837.45 317.965H1790.76V329.694H1837.45V317.965Z" fill="#E2EEFD"></path> <path d="M1837.45 335.906H1790.76V347.635H1837.45V335.906Z" fill="#E2EEFD"></path> <path d="M1837.45 355.684H1790.76V367.412H1837.45V355.684Z" fill="#E2EEFD"></path> <path d="M1837.45 373.852H1790.76V385.58H1837.45V373.852Z" fill="#E2EEFD"></path> <path d="M1837.45 392.02H1790.76V403.748H1837.45V392.02Z" fill="#E2EEFD"></path> <path d="M1837.45 410.879H1790.76V422.608H1837.45V410.879Z" fill="#E2EEFD"></path> <path d="M1837.45 428.812H1790.76V440.542H1837.45V428.812Z" fill="#E2EEFD"></path> <path d="M1072.55 262.77H1022.65V274.498H1072.55V262.77Z" fill="#E2EEFD"></path> <path d="M1072.55 280.938H1022.65V292.667H1072.55V280.938Z" fill="#E2EEFD"></path> <path d="M1072.55 299.34H1022.65V311.069H1072.55V299.34Z" fill="#E2EEFD"></path> <path d="M1072.55 317.965H1022.65V329.694H1072.55V317.965Z" fill="#E2EEFD"></path> <path d="M1072.55 335.906H1022.65V347.635H1072.55V335.906Z" fill="#E2EEFD"></path> <path d="M1072.55 355.684H1022.65V367.412H1072.55V355.684Z" fill="#E2EEFD"></path> <path d="M1072.55 373.855H1022.65V385.583H1072.55V373.855Z" fill="#E2EEFD"></path> <path d="M1072.55 392.02H1022.65V403.748H1072.55V392.02Z" fill="#E2EEFD"></path> <path d="M1072.55 410.879H1022.65V422.608H1072.55V410.879Z" fill="#E2EEFD"></path> <path d="M1072.55 428.812H1022.65V440.542H1072.55V428.812Z" fill="#E2EEFD"></path> <path d="M1164.31 270.59H1107.51V282.319H1164.31V270.59Z" fill="#E2EEFD"></path> <path d="M1164.31 288.527H1107.51V300.256H1164.31V288.527Z" fill="#E2EEFD"></path> <path d="M1164.31 306.93H1107.51V318.658H1164.31V306.93Z" fill="#E2EEFD"></path> <path d="M1164.31 325.559H1107.51V337.287H1164.31V325.559Z" fill="#E2EEFD"></path> <path d="M1164.31 343.496H1107.51V355.225H1164.31V343.496Z" fill="#E2EEFD"></path> <path d="M1164.31 362.352H1107.51V374.08H1164.31V362.352Z" fill="#E2EEFD"></path> <path d="M1164.31 380.289H1107.51V392.018H1164.31V380.289Z" fill="#E2EEFD"></path> <path d="M1164.31 398.684H1107.51V410.412H1164.31V398.684Z" fill="#E2EEFD"></path> <path d="M1164.31 417.312H1107.51V429.042H1164.31V417.312Z" fill="#E2EEFD"></path> <path d="M1164.31 435.48H1107.51V447.209H1164.31V435.48Z" fill="#E2EEFD"></path> <path d="M1854.01 222.297H1849.64V222.067L1851.02 210.338C1851.02 209.878 1851.48 209.648 1851.71 209.648C1851.71 209.648 1851.71 209.648 1851.94 209.648C1852.17 209.648 1852.4 209.878 1852.63 209.878C1852.86 210.108 1853.09 210.338 1853.09 210.568L1854.01 222.297Z" fill="white"></path> <path d="M1850.1 219.767L1851.02 210.338C1851.02 209.878 1851.48 209.648 1851.71 209.648C1851.71 209.648 1851.71 209.648 1851.94 209.648C1852.17 209.878 1852.17 210.108 1852.17 210.338V217.008C1852.4 218.617 1851.25 219.767 1850.1 219.767Z" fill="#AFCDFB"></path> <path d="M1856.77 274.5H1848.26V648.439H1856.77V274.5Z" fill="white"></path> <path d="M1852.17 274.5H1848.26V648.439H1852.17V274.5Z" fill="#AEC3FF"></path> <path d="M1865.97 588.879H1839.06V687.768H1865.97V588.879Z" fill="white"></path> <path d="M1855.16 588.879H1839.06V687.768H1855.16V588.879Z" fill="#AEC3FF"></path> <path d="M1867.35 228.049C1867.35 232.648 1860.45 236.328 1851.94 236.328C1851.25 236.328 1850.56 236.328 1850.1 236.328C1842.51 235.868 1836.53 232.188 1836.53 228.049C1836.53 223.679 1842.51 220.23 1850.1 219.77C1850.79 219.77 1851.48 219.77 1851.94 219.77C1860.22 219.77 1867.35 223.449 1867.35 228.049Z" fill="white"></path> <path d="M1859.3 228.049C1859.3 231.728 1855.39 234.948 1849.87 236.328C1842.28 235.868 1836.3 232.188 1836.3 228.049C1836.3 223.679 1842.28 220.23 1849.87 219.77C1855.39 221.149 1859.3 224.369 1859.3 228.049Z" fill="#AEC3FF"></path> <path d="M1865.97 281.859H1839.06L1829.4 236.094H1874.02L1865.97 281.859Z" fill="#AEC3FF"></path> <path d="M1876.55 232.645H1827.1V237.014H1876.55V232.645Z" fill="white"></path> <path d="M1858.15 232.645H1827.1V237.014H1858.15V232.645Z" fill="#AEC3FF"></path> <path d="M1843.43 588.876H1860.68L1858.15 581.287C1857.92 580.597 1857.23 580.137 1856.54 580.137H1848.49C1847.57 580.137 1846.88 580.597 1846.42 581.517L1843.43 588.876Z" fill="#819DEA"></path> <path d="M1832.62 238.395H1870.8L1863.21 279.56H1841.36L1832.62 238.395Z" fill="#C5D7FF"></path> <path d="M1873.33 232.649H1830.32L1833.77 227.59H1869.88L1873.33 232.649Z" fill="white"></path> <path d="M1862.75 232.649H1830.32L1833.77 227.59H1859.3L1862.75 232.649Z" fill="#AEC3FF"></path> <path d="M1100.84 688.224H828.78V621.762C829.7 622.222 830.62 622.682 831.31 623.142C868.336 641.999 863.506 667.297 909.501 658.098C955.496 648.899 993.442 644.989 1013.91 658.098C1034.38 671.206 1049.56 665.917 1075.08 665.917C1096.47 665.687 1100.15 682.475 1100.84 688.224Z" fill="#A8D29F"></path> <path d="M1157.18 612.1H898.001L886.042 551.156H1144.76L1157.18 612.1Z" fill="#D36D1A"></path> <path d="M1161.55 612.1H902.372L890.413 551.156H1149.13L1161.55 612.1Z" fill="#F6BB86"></path> <path d="M974.583 619.691H903.75C900.531 619.691 898.001 617.161 898.001 613.941V612.102H974.583V619.691Z" fill="#D36D1A"></path> <path d="M1209.39 612.102H973.895V619.461H1209.39V612.102Z" fill="#FF90AB"></path> <path d="M913.642 619.691L909.272 637.169L896.164 688.913C895.934 689.603 895.474 690.063 894.784 690.063C893.404 690.063 892.484 688.913 892.714 687.533L904.213 627.05L905.592 619.461H913.642V619.691Z" fill="#FF90AB"></path> <path d="M909.041 637.17C909.501 628.201 903.981 627.281 903.981 627.281L905.361 619.691H913.41L909.041 637.17Z" fill="#D36D1A"></path> <path d="M969.754 619.691L965.384 637.17L952.276 688.914C952.046 689.604 951.586 690.064 950.896 690.064C949.516 690.064 948.596 688.914 948.826 687.534L960.555 627.281L961.935 619.691H969.754Z" fill="#FF90AB"></path> <path d="M965.384 637.17C965.844 628.201 960.324 627.281 960.324 627.281L961.704 619.691H969.753L965.384 637.17Z" fill="#D36D1A"></path> <path d="M1187.77 619.691L1192.14 637.17L1205.25 688.914C1205.48 689.604 1205.94 690.064 1206.63 690.064C1208.01 690.064 1208.93 688.914 1208.7 687.534L1196.97 627.281L1195.59 619.691H1187.77Z" fill="#FF90AB"></path> <path d="M1192.37 637.17C1191.91 628.201 1197.43 627.281 1197.43 627.281L1196.05 619.691H1188L1192.37 637.17Z" fill="#D36D1A"></path> <path d="M1131.66 619.691L1136.03 637.169L1149.14 688.913C1149.37 689.603 1149.83 690.063 1150.52 690.063C1151.9 690.063 1152.82 688.913 1152.59 687.533L1141.09 627.05L1139.71 619.461H1131.66V619.691Z" fill="#FF90AB"></path> <path d="M1136.03 637.17C1135.57 628.201 1141.09 627.281 1141.09 627.281L1139.71 619.691H1131.66L1136.03 637.17Z" fill="#D36D1A"></path> <path d="M990.452 261.162C983.783 265.071 975.964 267.601 967.455 268.061C929.969 270.361 916.86 284.389 886.503 313.826C870.175 329.694 847.638 333.144 829.01 333.604V132.836C834.299 136.516 839.819 140.425 845.338 144.105C866.036 157.903 888.343 169.172 912.951 163.193C937.558 157.213 956.646 157.673 971.364 162.273C990.452 168.252 1002.87 181.361 1011.61 197.229C1023.8 219.536 1013.22 248.053 990.452 261.162Z" fill="#A8D29F"></path> <path d="M1296.78 190.1C1296.78 180.901 1304.37 173.312 1313.57 173.312C1322.77 173.312 1330.35 180.901 1330.35 190.1C1330.35 199.299 1322.77 206.888 1313.57 206.888C1304.37 206.888 1296.78 199.299 1296.78 190.1Z" fill="#F8FCFF"></path> <path d="M1573.67 175.151C1573.67 175.151 1588.39 151.694 1623.11 154.224C1623.11 154.224 1673.94 115.128 1727.98 148.934C1727.98 148.934 1785.48 140.425 1828.02 156.294C1856.31 166.642 1865.74 177.681 1865.74 177.681L1573.67 175.151Z" fill="#F8FCFF"></path> <g opacity="0.5"> <path opacity="0.5" d="M1748.22 235.404C1748.22 235.404 1757.88 219.996 1780.65 221.836C1780.65 221.836 1813.76 196.308 1849.18 218.386C1849.18 218.386 1886.89 212.867 1914.72 223.215C1933.35 230.115 1939.33 237.244 1939.33 237.244L1748.22 235.404Z" fill="#F8FCFF"></path> </g> <g opacity="0.5"> <path opacity="0.5" d="M1034.61 224.826C1034.61 224.826 1044.27 209.418 1067.03 211.257C1067.03 211.257 1100.15 185.73 1135.57 207.808C1135.57 207.808 1173.28 202.288 1201.11 212.637C1219.74 219.536 1225.72 226.666 1225.72 226.666L1034.61 224.826Z" fill="#F8FCFF"></path> </g> <path d="M2011.08 687.766H828.78V741.35H2011.08V687.766Z" fill="white"></path> <path d="M1573.67 671.435C1573.67 671.435 1567.92 650.508 1583.79 630.04C1599.66 609.572 1626.33 615.092 1626.33 615.092C1626.33 615.092 1630.01 620.841 1622.65 625.44C1615.3 630.04 1589.54 620.841 1582.87 665.686C1582.87 665.686 1579.88 674.885 1573.67 671.435Z" fill="#B3C9FF"></path> <path d="M1373.13 369.019C1373.13 363.729 1377.5 359.59 1382.56 359.59C1387.85 359.59 1391.99 363.959 1391.99 369.019C1391.99 374.308 1387.62 378.448 1382.56 378.448C1377.5 378.448 1373.13 374.308 1373.13 369.019Z" fill="#2B9CED"></path> <path d="M1603.8 659.018C1603.8 651.659 1609.78 645.68 1617.14 645.68C1624.49 645.68 1630.47 651.659 1630.47 659.018C1630.47 666.378 1624.49 672.357 1617.14 672.357C1609.78 672.357 1603.8 666.378 1603.8 659.018Z" fill="white"></path> <path d="M1307.59 648.663C1307.59 637.394 1316.79 628.195 1328.06 628.195C1339.33 628.195 1348.53 637.394 1348.53 648.663C1348.53 659.932 1339.33 669.131 1328.06 669.131C1316.79 669.131 1307.59 660.162 1307.59 648.663Z" fill="white"></path> <path d="M1360.12 377.93L1327.62 614.879L1335.82 616.004L1368.32 379.055L1360.12 377.93Z" fill="#131375"></path> <path d="M1340.02 386.031V376.832L1381.64 367.863L1384.4 375.452L1340.02 386.031Z" fill="#2B9CED"></path> <path d="M1328.75 687.531C1307.82 687.531 1290.57 670.513 1290.57 649.356C1290.57 628.428 1307.59 611.18 1328.75 611.18C1349.67 611.18 1366.92 628.198 1366.92 649.356C1366.92 670.513 1349.67 687.531 1328.75 687.531ZM1328.75 618.999C1311.96 618.999 1298.39 632.567 1298.39 649.356C1298.39 666.144 1311.96 679.712 1328.75 679.712C1345.54 679.712 1359.1 666.144 1359.1 649.356C1359.1 632.797 1345.54 618.999 1328.75 618.999Z" fill="#060633"></path> <path d="M1617.37 686.841C1601.96 686.841 1589.54 674.423 1589.54 659.015C1589.54 643.606 1601.96 631.188 1617.37 631.188C1632.77 631.188 1645.19 643.606 1645.19 659.015C1645.19 674.423 1632.54 686.841 1617.37 686.841ZM1617.37 637.167C1605.41 637.167 1595.75 646.826 1595.75 658.785C1595.75 670.743 1605.41 680.402 1617.37 680.402C1629.32 680.402 1638.98 670.743 1638.98 658.785C1638.98 647.056 1629.32 637.167 1617.37 637.167Z" fill="#060633"></path> <path d="M1576.2 674.885H1387.16C1383.71 674.885 1380.95 672.125 1380.95 668.676V665.686C1380.95 662.236 1383.71 659.477 1387.16 659.477H1576.2C1579.65 659.477 1582.41 662.236 1582.41 665.686V668.676C1582.41 672.125 1579.65 674.885 1576.2 674.885Z" fill="#131375"></path> <path d="M1578.27 675.115C1576.89 675.115 1575.74 674.195 1575.28 673.045C1574.82 671.435 1575.51 669.596 1577.12 669.136L1615.98 656.257C1617.59 655.797 1619.43 656.487 1619.89 658.097C1620.35 659.707 1619.66 661.546 1618.05 662.006L1579.19 674.885C1578.96 674.885 1578.73 675.115 1578.27 675.115Z" fill="#131375"></path> <path d="M1339.33 555.755L1404.41 659.934H1420.97L1342.78 536.438L1339.33 555.755Z" fill="#131375"></path> <path d="M1343.01 616.016L1337.03 614.176L1330.82 634.643C1328.75 641.543 1322.31 645.912 1315.18 645.222L1295.4 643.613L1294.94 649.822L1314.72 651.432C1323 652.122 1330.36 656.721 1334.73 663.62L1345.3 680.178L1350.59 676.729L1340.48 660.861C1335.65 653.501 1334.5 644.302 1337.03 635.793L1343.01 616.016Z" fill="#060633"></path> <path d="M1626.34 637.63L1622.43 636.48L1618.29 649.819C1616.91 654.189 1612.77 657.179 1608.17 656.719L1595.29 655.568L1595.06 659.708L1607.94 660.858C1613.23 661.318 1618.06 664.307 1621.05 668.677L1627.94 679.256L1631.39 676.956L1624.73 666.607C1621.74 661.778 1620.82 655.798 1622.43 650.279L1626.34 637.63Z" fill="#060633"></path> <path d="M1613.68 658.556C1613.68 656.946 1615.06 655.566 1616.67 655.566C1618.28 655.566 1619.66 656.946 1619.66 658.556C1619.66 660.166 1618.28 661.546 1616.67 661.546C1615.06 661.546 1613.68 660.166 1613.68 658.556Z" fill="#B3C9FF"></path> <path d="M1325.07 648.669C1325.07 647.06 1326.45 645.68 1328.06 645.68C1329.67 645.68 1331.05 647.06 1331.05 648.669C1331.05 650.279 1329.67 651.659 1328.06 651.659C1326.45 651.889 1325.07 650.509 1325.07 648.669Z" fill="#B3C9FF"></path> <path d="M1304.6 609.341C1304.6 609.341 1322.54 596.923 1346.92 604.972C1371.52 613.021 1375.2 640.158 1375.2 640.158C1375.2 640.158 1371.06 645.677 1364.16 640.158C1357.49 634.639 1357.26 607.271 1312.88 616.241C1313.34 616.011 1303.68 616.241 1304.6 609.341Z" fill="#B3C9FF"></path> <path d="M1474.55 141.344C1474.55 141.344 1443.73 191.018 1443.73 204.357C1443.73 217.925 1453.62 233.334 1453.62 233.334L1484.9 207.347L1500.54 179.52L1474.55 141.344Z" fill="#829CE8"></path> <path d="M1498.93 214.017C1498.93 214.017 1488.58 232.875 1469.95 229.425C1469.95 229.425 1464.43 221.146 1463.05 214.477C1462.82 213.557 1462.82 212.867 1462.59 212.177C1460.98 204.818 1460.06 200.678 1460.06 200.678C1460.75 200.218 1484.44 184.58 1484.44 185.5C1487.89 205.738 1498.93 214.017 1498.93 214.017Z" fill="#FFD1B2"></path> <path d="M1451.78 201.824C1451.78 201.824 1480.3 211.483 1486.05 193.545C1491.8 175.607 1499.16 164.798 1481.22 157.899C1463.28 151 1457.53 156.749 1454.08 162.269C1450.86 167.788 1444.43 198.835 1451.78 201.824Z" fill="#FFCECE"></path> <path d="M1419.35 659.936H1466.5C1466.96 659.936 1467.19 659.706 1467.42 659.706C1470.64 658.096 1469.49 646.137 1469.26 642.458C1469.26 641.768 1469.03 641.308 1469.03 641.308C1469.03 641.308 1452.47 627.969 1450.17 638.088C1450.17 638.318 1449.94 638.778 1449.94 639.008C1446.95 648.437 1434.3 652.807 1426.71 653.957C1421.19 655.106 1419.58 658.326 1419.35 659.936Z" fill="#FFBAE3"></path> <path d="M1511.58 659.932H1558.72C1559.18 659.932 1559.41 659.702 1559.64 659.702C1562.86 658.092 1561.71 646.134 1561.48 642.454C1561.48 641.764 1561.25 641.304 1561.25 641.304C1561.25 641.304 1544.69 627.965 1542.39 638.084C1542.39 638.314 1542.16 638.774 1542.16 639.004C1539.17 648.433 1526.53 652.803 1518.94 653.953C1513.42 655.103 1512.04 658.322 1511.58 659.932Z" fill="#FFBAE3"></path> <path d="M1428.79 388.104C1428.79 388.104 1431.31 419.61 1434.3 457.326C1438.21 508.611 1443.27 571.624 1443.73 583.582C1444.65 604.28 1450.17 639.236 1450.17 639.236C1450.17 639.236 1453.62 644.756 1469.26 641.306C1469.26 641.306 1485.59 594.621 1489.5 544.487C1489.5 543.567 1489.73 542.877 1489.73 541.957C1493.41 490.903 1499.16 383.734 1499.16 383.734L1428.79 388.104Z" fill="#B3C9FF"></path> <path d="M1428.79 388.104C1428.79 388.104 1431.31 419.611 1434.3 457.327L1489.5 544.717C1489.5 543.797 1489.73 543.107 1489.73 542.187C1493.41 491.133 1499.16 383.965 1499.16 383.965L1428.79 388.104Z" fill="#2B9CED"></path> <path d="M1440.28 391.788C1440.28 391.788 1471.1 510.225 1501 563.579C1530.89 616.933 1541.47 640.85 1541.47 640.85C1541.47 640.85 1559.87 645.68 1561.25 641.08C1561.25 641.08 1545.61 513.904 1533.42 484.007C1527.21 468.599 1524.22 421.224 1523.53 406.276C1522.84 391.328 1512.5 371.09 1512.5 371.09L1440.28 391.788Z" fill="#B3C9FF"></path> <path d="M1430.17 438.008C1487.66 466.295 1550.44 457.096 1550.21 455.256C1550.21 453.186 1526.3 326.47 1518.02 289.674C1510.43 255.178 1500.08 225.281 1490.42 218.382C1489.27 217.462 1481.68 221.372 1474.55 225.052C1468.11 228.271 1461.67 228.961 1455.46 227.811C1455.46 227.811 1452.24 231.951 1450.4 236.55C1446.49 245.979 1426.49 310.372 1426.03 321.411C1426.03 322.101 1426.03 322.791 1426.03 323.481C1426.03 326.7 1425.8 329.92 1425.8 333.14C1426.03 336.359 1429.48 437.778 1430.17 438.008Z" fill="white"></path> <path d="M1428.1 389.717C1484.44 357.981 1478.92 285.309 1478.92 285.309L1426.26 332.683C1426.26 336.363 1426.26 340.043 1426.26 343.492C1426.26 346.252 1426.26 348.782 1426.26 351.541V352.001C1426.26 352.921 1426.26 354.071 1426.26 354.991C1426.03 359.361 1427.87 385.578 1428.1 389.717Z" fill="#7A96E5"></path> <path d="M1371.06 367.87C1368.3 363.041 1370.37 360.971 1370.37 360.971C1370.37 360.971 1417.05 326.705 1420.73 323.255C1424.41 319.806 1442.81 263.002 1442.81 263.002C1442.81 263.002 1449.25 240.004 1462.59 237.935C1474.32 236.095 1482.14 242.074 1486.97 248.973C1492.95 257.253 1493.18 268.291 1487.89 276.8C1475.7 296.118 1451.09 334.064 1443.96 340.503C1428.32 354.762 1377.73 372.01 1377.73 372.01C1377.73 372.01 1373.36 371.78 1371.06 367.87Z" fill="#FFCECE"></path> <path d="M1484.67 198.377C1485.13 198.607 1491.11 201.137 1505.37 178.599C1507.67 175.149 1509.51 167.1 1505.83 159.511C1502.15 151.922 1487.2 145.023 1474.55 141.343C1461.9 137.663 1458.22 144.563 1454.54 151.692C1450.63 159.051 1440.97 164.571 1440.97 164.571C1451.55 171.7 1465.58 164.111 1470.18 165.95C1474.78 167.79 1475.7 175.379 1475.7 177.679C1475.93 179.979 1476.16 182.049 1482.14 180.439C1488.12 178.829 1483.98 188.948 1482.83 190.788C1482.83 190.788 1481.45 195.847 1484.67 198.377Z" fill="#233862"></path> <path d="M1474.55 141.344C1474.55 141.344 1490.42 168.251 1490.88 179.75C1491.34 191.248 1455.69 227.354 1455.69 227.354C1455.69 227.354 1486.28 235.404 1498.93 227.354C1498.93 227.354 1528.13 186.879 1528.13 179.29C1527.9 172.16 1510.88 141.804 1474.55 141.344Z" fill="white"></path> <path d="M1446.72 386.961C1446.72 386.961 1474.32 391.56 1491.8 389.031L1491.34 416.858L1469.26 425.367L1446.72 412.948V386.961Z" fill="#7A96E5"></path> <path d="M1370.37 360.969C1370.37 360.969 1352.43 361.889 1348.98 365.108C1345.3 368.558 1338.4 374.767 1343.69 375.917L1356.57 373.158C1363.01 374.767 1365.54 378.217 1369.68 376.147C1373.82 373.847 1378.42 371.548 1378.42 371.548L1370.37 360.969Z" fill="#FFCECE"></path> <path d="M1327.6 380.284C1327.6 374.995 1331.97 370.855 1337.03 370.855C1342.09 370.855 1346.45 375.225 1346.45 380.284C1346.45 385.574 1342.09 389.713 1337.03 389.713C1331.97 389.713 1327.6 385.344 1327.6 380.284Z" fill="#B3C9FF"></path> <path d="M1585.86 313.136C1585.86 314.516 1585.63 315.666 1585.4 316.815C1581.72 331.074 1533.19 341.883 1527.9 336.823C1526.98 335.903 1525.83 334.523 1524.68 332.684C1510.89 309.916 1493.41 227.585 1500.31 232.415C1500.31 232.415 1513.19 228.505 1523.76 227.355L1525.6 227.125C1529.05 226.895 1532.04 227.125 1534.11 227.815C1543.08 231.265 1550.21 254.722 1550.21 254.722C1550.21 254.722 1557.57 253.572 1564.24 254.492C1565.16 254.492 1565.85 254.722 1566.54 254.952C1568.61 255.412 1570.45 256.102 1571.83 257.022C1577.58 260.932 1586.78 297.728 1585.86 313.136Z" fill="#B3C9FF"></path> <path d="M1506.28 231.034C1506.28 231.034 1489.73 215.166 1461.9 220.915L1455.69 227.584C1455.69 227.584 1483.52 220.915 1498.93 235.634L1506.28 231.034Z" fill="#B3C9FF"></path> <path d="M1458 306.695C1458 306.695 1474.55 336.132 1519.86 321.644L1524.46 332.682C1524.46 332.682 1470.64 348.091 1452.48 318.424L1458 306.695Z" fill="#B3C9FF"></path> <path d="M1463.97 233.331C1463.97 233.331 1452.47 231.951 1448.33 242.759C1445.34 250.349 1438.44 286.455 1423.27 312.672C1417.06 323.251 1393.83 343.718 1384.17 351.078C1384.17 351.078 1387.62 362.576 1395.21 365.566C1395.21 365.566 1432 369.246 1456.15 341.879C1463.05 334.059 1504.22 266.907 1495.71 253.108C1487.2 239.08 1463.97 233.331 1463.97 233.331Z" fill="white"></path> <path d="M1525.6 227.121C1523.99 228.731 1520.78 232.87 1521.93 240.92C1523.31 251.728 1526.75 259.318 1526.75 259.548L1525.6 260.007C1525.6 260.007 1521.93 251.958 1520.55 241.15C1519.63 234.02 1521.93 229.651 1523.77 227.351L1525.6 227.121Z" fill="#2B9CED"></path> <path d="M1572.29 313.366L1571.14 313.826C1570.68 311.986 1557.8 270.59 1558.72 263.001C1559.18 258.172 1562.17 255.642 1564.47 254.492C1565.39 254.492 1566.08 254.722 1566.77 254.952C1565.16 255.412 1560.79 257.252 1560.1 263.231C1558.95 270.59 1572.29 312.906 1572.29 313.366Z" fill="#2B9CED"></path> <path d="M1514.57 295.2L1526.07 327.626C1526.07 327.626 1541.93 328.086 1551.59 321.417L1541.01 288.07C1541.01 288.07 1532.27 294.97 1514.57 295.2Z" fill="#2B9CED"></path> <path d="M1585.86 313.133C1585.86 314.513 1585.63 315.663 1585.4 316.812C1581.72 331.071 1533.19 341.88 1527.9 336.82C1526.99 335.9 1525.84 334.52 1524.69 332.681C1524.92 332.451 1552.51 331.531 1585.86 313.133Z" fill="#2B9CED"></path> <path d="M1514.57 295.199L1518.02 304.627L1533.19 305.777L1544 297.498L1541.01 288.299C1541.01 288.069 1524 291.749 1514.57 295.199Z" fill="#EF873A"></path> <path d="M1530.89 302.783C1530.89 302.323 1531.35 301.863 1531.81 301.863C1532.27 301.863 1532.73 302.323 1532.73 302.783C1532.73 303.243 1532.27 303.703 1531.81 303.703C1531.35 303.933 1530.89 303.473 1530.89 302.783Z" fill="#131375"></path> <path d="M2331.2 854.266H913.181V889.912H2331.2V854.266Z" fill="white"></path> <path d="M2331.2 926.246H913.181V961.892H2331.2V926.246Z" fill="white"></path> <path d="M2331.21 998.23H1544.92V1033.88H2331.21V998.23Z" fill="white"></path> <path d="M1994.06 1070.21H1384.17V1105.86H1994.06V1070.21Z" fill="white"></path> <path d="M2331.21 1142.19H1544.92V1177.84H2331.21V1142.19Z" fill="white"></path> <path d="M560.17 565.188H184.621V582.896H560.17V565.188Z" fill="white"></path> <path d="M637.671 565.188H596.275V606.583H637.671V565.188Z" fill="white"></path> <path d="M497.156 565.188H324.905V582.896H497.156V565.188Z" fill="#FF3DD4"></path> <path d="M560.17 467.449H184.621V485.157H560.17V467.449Z" fill="white"></path> <path d="M637.671 467.449H596.275V508.845H637.671V467.449Z" fill="white"></path> <path d="M353.652 467.449H233.605V485.157H353.652V467.449Z" fill="#FF3DD4"></path> <path d="M560.17 369.711H184.621V387.419H560.17V369.711Z" fill="white"></path> <path d="M637.671 369.711H596.275V411.106H637.671V369.711Z" fill="#7A96E5"></path> <path d="M490.487 369.711H370.44V387.419H490.487V369.711Z" fill="#7A96E5"></path> <path d="M560.17 271.973H184.621V289.681H560.17V271.973Z" fill="white"></path> <path d="M637.672 271.973H596.276V313.368H637.672V271.973Z" fill="#7A96E5"></path> <path d="M416.205 271.973H233.605V289.681H416.205V271.973Z" fill="#7A96E5"></path> <path d="M560.17 174.23H184.621V191.938H560.17V174.23Z" fill="white"></path> <path d="M637.671 174.23H596.275V215.626H637.671V174.23Z" fill="#FF3DD4"></path> <path d="M521.765 174.23H361.702V191.938H521.765V174.23Z" fill="#FF3DD4"></path> <path d="M390.219 787.574H353.653V824.14H390.219V787.574Z" fill="white"></path> <path d="M455.531 787.574H418.965V824.14H455.531V787.574Z" fill="white"></path> <path d="M670.789 792.172H480.6V805.74H670.789V792.172Z" fill="white"></path> <path d="M299.148 782.977L329.045 805.744L299.148 823.222V782.977Z" fill="white"></path> <path d="M390.219 857.258H353.653V893.824H390.219V857.258Z" fill="#7A96E5"></path> <path d="M455.532 857.258H418.966V893.824H455.532V857.258Z" fill="white"></path> <path d="M670.788 862.086H480.599V875.654H670.788V862.086Z" fill="white"></path> <path d="M299.148 852.656L329.045 875.424L299.148 892.902V852.656Z" fill="white"></path> <path d="M390.219 927.172H353.653V963.738H390.219V927.172Z" fill="#FF3DD4"></path> <path d="M455.532 927.172H418.966V963.738H455.532V927.172Z" fill="white"></path> <path d="M670.788 931.77H480.599V945.338H670.788V931.77Z" fill="white"></path> <path d="M299.148 922.57L329.045 945.338L299.148 962.816V922.57Z" fill="white"></path> <path d="M390.219 996.852H353.653V1033.42H390.219V996.852Z" fill="#FF3DD4"></path> <path d="M455.532 996.852H418.966V1033.42H455.532V996.852Z" fill="white"></path> <path d="M670.788 1001.68H480.599V1015.25H670.788V1001.68Z" fill="white"></path> <path d="M299.148 992.254L329.045 1015.02L299.148 1032.5V992.254Z" fill="white"></path> <path d="M390.219 1066.76H353.653V1103.33H390.219V1066.76Z" fill="#7A96E5"></path> <path d="M455.532 1066.76H418.966V1103.33H455.532V1066.76Z" fill="white"></path> <path d="M670.788 1071.36H480.599V1084.93H670.788V1071.36Z" fill="white"></path> <path d="M299.148 1062.16L329.045 1084.93L299.148 1102.41V1062.16Z" fill="white"></path> <path d="M390.219 1136.45H353.653V1173.01H390.219V1136.45Z" fill="#7A96E5"></path> <path d="M455.532 1136.45H418.966V1173.01H455.532V1136.45Z" fill="white"></path> <path d="M670.788 1141.04H480.599V1154.61H670.788V1141.04Z" fill="white"></path> <path d="M299.148 1131.85L329.045 1154.61L299.148 1172.09V1131.85Z" fill="white"></path> <g opacity="0.5"> <g opacity="0.5"> <path opacity="0.5" d="M178.871 802.982C178.871 802.982 188.53 790.562 201.639 790.562C214.977 790.562 223.256 802.982 223.256 802.982C223.256 802.982 216.357 815.401 201.639 815.401C186.23 815.401 178.871 802.982 178.871 802.982Z" fill="#DDE7FE"></path> </g> <g opacity="0.5"> <path opacity="0.5" d="M192.44 802.982C192.44 798.152 196.35 794.473 200.95 794.473C205.549 794.473 209.459 798.382 209.459 802.982C209.459 807.811 205.549 811.491 200.95 811.491C196.35 811.491 192.44 807.811 192.44 802.982Z" fill="#A037D1"></path> </g> <g opacity="0.5"> <path opacity="0.5" d="M195.66 802.981C195.66 799.991 197.96 797.691 200.95 797.691C203.939 797.691 206.239 799.991 206.239 802.981C206.239 805.97 203.939 808.27 200.95 808.27C197.96 808.27 195.66 805.97 195.66 802.981Z" fill="#DDE7FE"></path> </g> </g> <g opacity="0.5"> <g opacity="0.5"> <path opacity="0.5" d="M178.871 872.895C178.871 872.895 188.53 860.477 201.639 860.477C214.977 860.477 223.256 872.895 223.256 872.895C223.256 872.895 216.357 885.314 201.639 885.314C186.23 885.314 178.871 872.895 178.871 872.895Z" fill="#DDE7FE"></path> </g> <g opacity="0.5"> <path opacity="0.5" d="M192.44 872.896C192.44 868.066 196.35 864.387 200.95 864.387C205.549 864.387 209.459 868.296 209.459 872.896C209.459 877.725 205.549 881.405 200.95 881.405C196.35 881.405 192.44 877.495 192.44 872.896Z" fill="#A037D1"></path> </g> <g opacity="0.5"> <path opacity="0.5" d="M195.66 872.894C195.66 869.904 197.96 867.605 200.95 867.605C203.939 867.605 206.239 869.904 206.239 872.894C206.239 875.884 203.939 878.183 200.95 878.183C197.96 878.183 195.66 875.654 195.66 872.894Z" fill="#DDE7FE"></path> </g> </g> <g opacity="0.5"> <g opacity="0.5"> <path opacity="0.5" d="M178.871 942.575C178.871 942.575 188.53 930.156 201.639 930.156C214.977 930.156 223.256 942.575 223.256 942.575C223.256 942.575 216.357 954.993 201.639 954.993C186.23 954.993 178.871 942.575 178.871 942.575Z" fill="#DDE7FE"></path> </g> <g opacity="0.5"> <path opacity="0.5" d="M192.44 942.575C192.44 937.746 196.35 934.066 200.95 934.066C205.549 934.066 209.459 937.976 209.459 942.575C209.459 947.405 205.549 951.085 200.95 951.085C196.35 951.085 192.44 947.405 192.44 942.575Z" fill="#A037D1"></path> </g> <g opacity="0.5"> <path opacity="0.5" d="M195.66 942.571C195.66 939.581 197.96 937.281 200.95 937.281C203.939 937.281 206.239 939.581 206.239 942.571C206.239 945.56 203.939 947.86 200.95 947.86C197.96 947.86 195.66 945.56 195.66 942.571Z" fill="#DDE7FE"></path> </g> </g> <g opacity="0.5"> <g opacity="0.5"> <path opacity="0.5" d="M178.871 1012.49C178.871 1012.49 188.53 1000.07 201.639 1000.07C214.977 1000.07 223.256 1012.49 223.256 1012.49C223.256 1012.49 216.357 1024.91 201.639 1024.91C186.23 1024.91 178.871 1012.49 178.871 1012.49Z" fill="#DDE7FE"></path> </g> <g opacity="0.5"> <path opacity="0.5" d="M192.44 1012.49C192.44 1007.66 196.35 1003.98 200.95 1003.98C205.549 1003.98 209.459 1007.89 209.459 1012.49C209.459 1017.32 205.549 1021 200.95 1021C196.35 1021 192.44 1017.09 192.44 1012.49Z" fill="#A037D1"></path> </g> <g opacity="0.5"> <path opacity="0.5" d="M195.66 1012.49C195.66 1009.5 197.96 1007.2 200.95 1007.2C203.939 1007.2 206.239 1009.5 206.239 1012.49C206.239 1015.48 203.939 1017.78 200.95 1017.78C197.96 1017.78 195.66 1015.25 195.66 1012.49Z" fill="#DDE7FE"></path> </g> </g> <g opacity="0.5"> <g opacity="0.5"> <path opacity="0.5" d="M178.871 1082.17C178.871 1082.17 188.53 1069.75 201.639 1069.75C214.977 1069.75 223.256 1082.17 223.256 1082.17C223.256 1082.17 216.357 1094.59 201.639 1094.59C186.23 1094.59 178.871 1082.17 178.871 1082.17Z" fill="#DDE7FE"></path> </g> <g opacity="0.5"> <path opacity="0.5" d="M192.44 1082.17C192.44 1077.34 196.35 1073.66 200.95 1073.66C205.549 1073.66 209.459 1077.57 209.459 1082.17C209.459 1086.77 205.549 1090.68 200.95 1090.68C196.35 1090.68 192.44 1087 192.44 1082.17Z" fill="#A037D1"></path> </g> <g opacity="0.5"> <path opacity="0.5" d="M195.661 1082.17C195.661 1079.18 197.961 1076.88 200.951 1076.88C203.94 1076.88 206.24 1079.18 206.24 1082.17C206.24 1085.16 203.94 1087.46 200.951 1087.46C197.961 1087.46 195.661 1085.16 195.661 1082.17Z" fill="#DDE7FE"></path> </g> </g> <g opacity="0.5"> <g opacity="0.5"> <path opacity="0.5" d="M178.871 1152.08C178.871 1152.08 188.53 1139.67 201.639 1139.67C214.977 1139.67 223.256 1152.08 223.256 1152.08C223.256 1152.08 216.357 1164.5 201.639 1164.5C186.23 1164.5 178.871 1152.08 178.871 1152.08Z" fill="#DDE7FE"></path> </g> <g opacity="0.5"> <path opacity="0.5" d="M192.44 1152.08C192.44 1147.25 196.35 1143.57 200.95 1143.57C205.549 1143.57 209.459 1147.48 209.459 1152.08C209.459 1156.91 205.549 1160.59 200.95 1160.59C196.35 1160.59 192.44 1156.68 192.44 1152.08Z" fill="#A037D1"></path> </g> <g opacity="0.5"> <path opacity="0.5" d="M195.66 1152.08C195.66 1149.09 197.96 1146.79 200.95 1146.79C203.939 1146.79 206.239 1149.09 206.239 1152.08C206.239 1155.07 203.939 1157.37 200.95 1157.37C197.96 1157.37 195.66 1154.84 195.66 1152.08Z" fill="#DDE7FE"></path> </g> </g> <path d="M2331.21 1070.21H1791V1105.86H2331.21V1070.21Z" fill="#B3C9FF"></path> <path d="M2200.35 998.23H1886.43V1033.88H2200.35V998.23Z" fill="#B3C9FF"></path> <path d="M2215.07 854.266H1851.71V889.912H2215.07V854.266Z" fill="#B3C9FF"></path> <path d="M2276.24 926.246H1962.33V961.892H2276.24V926.246Z" fill="#7A96E5"></path> <path d="M1100.38 326.703C1026.1 231.953 943.536 228.503 942.616 228.503V226.434C943.536 226.434 1027.02 229.883 1101.99 325.553L1100.38 326.703Z" fill="#A037D1"></path> <path d="M933.188 227.583C933.188 222.753 937.097 218.844 941.927 218.844C946.756 218.844 950.666 222.753 950.666 227.583C950.666 232.412 946.756 236.322 941.927 236.322C937.097 236.322 933.188 232.412 933.188 227.583Z" fill="#FF3DD4"></path> <path d="M1092.56 325.321C1092.56 320.492 1096.47 316.582 1101.3 316.582C1106.13 316.582 1110.04 320.492 1110.04 325.321C1110.04 330.151 1106.13 334.06 1101.3 334.06C1096.47 334.06 1092.56 330.151 1092.56 325.321Z" fill="#FF3DD4"></path> <path d="M1122.69 209.189L1121.08 207.809C1121.54 207.119 1176.73 144.106 1298.16 145.946V148.016C1177.65 146.406 1123.15 208.499 1122.69 209.189Z" fill="#A037D1"></path> <path d="M1115.79 216.083C1111.88 213.094 1111.42 207.574 1114.41 203.665C1117.4 199.985 1122.92 199.295 1126.83 202.285C1130.51 205.275 1131.2 210.794 1128.21 214.704C1125.22 218.383 1119.7 219.073 1115.79 216.083Z" fill="#FF3DD4"></path> <path d="M1291.95 153.302C1288.27 150.313 1287.58 144.793 1290.57 140.884C1293.56 137.204 1299.08 136.514 1302.99 139.504C1306.67 142.493 1307.36 148.013 1304.37 151.922C1301.15 155.602 1295.63 156.292 1291.95 153.302Z" fill="#FF3DD4"></path> <path d="M1684.97 208.958L1683.13 207.348C1683.82 206.658 1746.15 135.826 1892.18 145.255L1891.95 147.785C1747.07 138.586 1685.66 208.268 1684.97 208.958Z" fill="#A037D1"></path> <path d="M1677.15 216.548C1672.33 212.638 1671.41 206.199 1674.85 201.83C1678.3 197.46 1684.97 197.23 1689.57 200.91C1694.4 204.819 1695.32 211.259 1691.87 215.628C1688.65 219.998 1681.98 220.458 1677.15 216.548Z" fill="#FF3DD4"></path> <path d="M1884.82 153.536C1879.99 149.627 1879.07 143.188 1882.52 138.818C1885.97 134.449 1892.64 134.219 1897.24 137.898C1902.07 141.808 1902.99 148.247 1899.54 152.617C1896.32 156.986 1889.65 157.446 1884.82 153.536Z" fill="#FF3DD4"></path> <path d="M1582.41 242.074H1434.3V244.144H1582.41V242.074Z" fill="#A037D1"></path> <path d="M1425.56 242.993C1425.56 238.163 1429.47 234.254 1434.3 234.254C1439.13 234.254 1443.04 238.163 1443.04 242.993C1443.04 247.822 1439.13 251.732 1434.3 251.732C1429.47 251.732 1425.56 248.052 1425.56 242.993Z" fill="#FA7267"></path> <path d="M1573.67 242.993C1573.67 238.163 1577.58 234.254 1582.41 234.254C1587.24 234.254 1591.15 238.163 1591.15 242.993C1591.15 247.822 1587.24 251.732 1582.41 251.732C1577.58 251.962 1573.67 248.052 1573.67 242.993Z" fill="#FA7267"></path> <path d="M1755.31 822.154L1740.19 807.031L1725.06 822.157L1740.19 837.28L1755.31 822.154Z" fill="#FF3DD4"></path> <path d="M1350.82 511.145C1266.42 511.145 1177.42 496.427 1105.21 480.099C974.356 450.662 869.257 410.416 868.107 409.956L868.797 407.887C869.947 408.347 974.816 448.592 1105.67 477.799C1226.18 504.936 1393.83 528.163 1507.9 484.468C1622.42 440.773 1743.39 446.982 1825.03 460.091C1913.34 474.119 1975.44 498.957 1975.9 499.187L1975.21 501.256C1974.52 501.026 1912.65 476.419 1824.57 462.391C1743.39 449.512 1622.65 443.073 1508.59 486.768C1462.59 504.476 1407.86 511.145 1350.82 511.145Z" fill="#A037D1"></path> <path d="M1523.76 478.028C1523.76 473.199 1527.67 469.289 1532.5 469.289C1537.33 469.289 1541.24 473.199 1541.24 478.028C1541.24 482.858 1537.33 486.767 1532.5 486.767C1527.67 486.767 1523.76 482.858 1523.76 478.028Z" fill="#17152B"></path> <path d="M1279.3 509.079C1279.3 504.249 1283.21 500.34 1288.04 500.34C1292.87 500.34 1296.78 504.249 1296.78 509.079C1296.78 513.908 1292.87 517.818 1288.04 517.818C1283.21 517.818 1279.3 513.908 1279.3 509.079Z" fill="#17152B"></path> <path d="M1335.87 724.792C1317.71 724.792 1297.47 721.572 1277 712.373L1277.92 710.534C1338.63 738.591 1399.81 710.074 1400.5 709.844L1401.42 711.684C1400.96 711.913 1372.9 724.792 1335.87 724.792Z" fill="#A037D1"></path> <path d="M1406.48 717.433C1402.8 720.423 1397.05 719.963 1394.06 716.053C1391.07 712.374 1391.53 706.624 1395.44 703.635C1399.12 700.645 1404.87 701.105 1407.86 705.015C1410.85 708.924 1410.39 714.443 1406.48 717.433Z" fill="#FF3DD4"></path> <path d="M1282.98 718.355C1279.3 721.345 1273.55 720.885 1270.56 716.975C1267.57 713.296 1268.03 707.546 1271.94 704.557C1275.62 701.567 1281.37 702.027 1284.36 705.936C1287.35 709.616 1286.89 715.135 1282.98 718.355Z" fill="#FF3DD4"></path> <path d="M1627.25 724.792C1609.08 724.792 1588.84 721.572 1568.38 712.373L1569.3 710.534C1630.01 738.361 1691.18 710.074 1691.87 709.844L1692.79 711.684C1692.33 711.914 1664.28 724.792 1627.25 724.792Z" fill="#A037D1"></path> <path d="M1697.86 717.433C1694.18 720.423 1688.43 719.963 1685.44 716.053C1682.45 712.374 1682.91 706.624 1686.82 703.635C1690.5 700.645 1696.25 701.105 1699.23 705.015C1702.22 708.924 1701.76 714.444 1697.86 717.433Z" fill="#FF3DD4"></path> <path d="M1574.36 718.355C1570.68 721.345 1564.93 720.885 1561.94 716.975C1558.95 713.296 1559.41 707.546 1563.32 704.557C1567 701.567 1572.75 702.027 1575.74 705.936C1578.73 709.616 1578.27 715.135 1574.36 718.355Z" fill="#FF3DD4"></path> <g opacity="0.3"> <path opacity="0.3" d="M2011.08 399.836V701.793L1903.22 687.764C1903.22 687.764 1893.56 624.061 1939.56 603.824C1982.11 585.196 1953.36 421.454 2011.08 399.836Z" fill="white"></path> </g> <path d="M1961.64 500.567C1961.64 495.738 1965.55 491.828 1970.38 491.828C1975.21 491.828 1979.11 495.738 1979.11 500.567C1979.11 505.397 1975.21 509.306 1970.38 509.306C1965.55 509.306 1961.64 505.397 1961.64 500.567Z" fill="#FF3DD4"></path> <path d="M862.124 409.036C862.124 404.207 866.034 400.297 870.863 400.297C875.693 400.297 879.602 404.207 879.602 409.036C879.602 413.865 875.693 417.775 870.863 417.775C866.034 418.005 862.124 413.865 862.124 409.036Z" fill="#FF3DD4"></path> <path d="M435.511 1392.13L115.243 1468.79L184.361 1757.53L504.628 1680.86L435.511 1392.13Z" fill="#8C9DF4"></path> <path d="M435.584 1392.13L115.316 1468.79L130.521 1532.31L450.789 1455.64L435.584 1392.13Z" fill="#6980E2"></path> </g> <defs> <linearGradient id="paint0_linear" x1="2630.11" y1="47.926" x2="176.69" y2="1513.69" gradientUnits="userSpaceOnUse"> <stop stop-color="white"></stop> <stop offset="1" stop-color="white" stop-opacity="0"></stop> </linearGradient> <clipPath id="clip0"> <rect width="2756" height="1921" fill="white" transform="translate(0 0.5)"></rect> </clipPath> </defs> </svg> 