<?xml version="1.0" encoding="UTF-8"?> <svg xmlns="http://www.w3.org/2000/svg" width="338" height="275" viewBox="0 0 338 275" fill="none"> <path d="M326.109 54.287L33.706 11.2643C28.242 10.4603 22.8055 14.171 21.5633 19.5524L14.6915 49.3212C13.4493 54.7026 16.8717 59.7167 22.3357 60.5207L314.739 103.543C320.203 104.347 325.639 100.637 326.881 95.2554L333.753 65.4865C334.995 60.1052 331.573 55.091 326.109 54.287Z" fill="#7D82ED"></path> <path d="M296.649 96.8477H32.9561C16.9398 96.8477 3.95605 109.831 3.95605 125.848V245.215C3.95605 261.231 16.9398 274.215 32.9561 274.215H296.649C312.665 274.215 325.649 261.231 325.649 245.215V125.848C325.649 109.831 312.665 96.8477 296.649 96.8477Z" fill="#F048FF"></path> <path d="M296.649 96.8477H32.9561C16.9398 96.8477 3.95605 109.831 3.95605 125.848V245.215C3.95605 261.231 16.9398 274.215 32.9561 274.215H296.649C312.665 274.215 325.649 261.231 325.649 245.215V125.848C325.649 109.831 312.665 96.8477 296.649 96.8477Z" fill="url(#paint0_linear)"></path> <path d="M315.649 96.8477H14.1445C8.62168 96.8477 4.14453 101.325 4.14453 106.848V120.059C4.14453 125.582 8.62168 130.059 14.1445 130.059H315.649C321.171 130.059 325.649 125.582 325.649 120.059V106.848C325.649 101.325 321.171 96.8477 315.649 96.8477Z" fill="#7D82ED"></path> <path d="M89.1271 163.758H65.373C54.8796 163.758 46.373 172.264 46.373 182.758V210.542C46.373 221.035 54.8796 229.542 65.373 229.542H89.1271C99.6206 229.542 108.127 221.035 108.127 210.542V182.758C108.127 172.264 99.6206 163.758 89.1271 163.758Z" stroke="#E2A4FF" stroke-width="4"></path> <path d="M167.061 165.758H124.24C122.89 165.758 121.795 166.852 121.795 168.203C121.795 169.553 122.89 170.648 124.24 170.648H167.061C168.411 170.648 169.506 169.553 169.506 168.203C169.506 166.852 168.411 165.758 167.061 165.758Z" fill="#E2A4FF"></path> <path d="M209.021 184.719H124.24C122.89 184.719 121.795 185.813 121.795 187.164C121.795 188.514 122.89 189.609 124.24 189.609H209.021C210.371 189.609 211.466 188.514 211.466 187.164C211.466 185.813 210.371 184.719 209.021 184.719Z" fill="#E2A4FF"></path> <path d="M237.766 203.68H124.24C122.89 203.68 121.795 204.774 121.795 206.125C121.795 207.475 122.89 208.57 124.24 208.57H237.766C239.116 208.57 240.211 207.475 240.211 206.125C240.211 204.774 239.116 203.68 237.766 203.68Z" fill="#E2A4FF"></path> <path d="M237.766 222.648H124.24C122.89 222.648 121.795 223.743 121.795 225.093C121.795 226.444 122.89 227.538 124.24 227.538H237.766C239.116 227.538 240.211 226.444 240.211 225.093C240.211 223.743 239.116 222.648 237.766 222.648Z" fill="#E2A4FF"></path> <mask id="mask0" mask-type="alpha" maskUnits="userSpaceOnUse" x="10" y="90" width="309" height="46"> <path d="M68.3802 98.4647L57.8857 90.1914L42.2877 127.082L52.7821 135.355L68.3802 98.4647Z" fill="#342E2E"></path> <path d="M37.0296 98.4647L26.5352 90.1914L10.9371 127.082L21.4315 135.355L37.0296 98.4647Z" fill="#342E2E"></path> <path d="M104.135 98.4647L93.6406 90.1914L78.0425 127.082L88.537 135.355L104.135 98.4647Z" fill="#342E2E"></path> <path d="M139.89 98.4647L129.396 90.1914L113.797 127.082L124.292 135.355L139.89 98.4647Z" fill="#342E2E"></path> <path d="M175.646 98.4647L165.151 90.1914L149.553 127.082L160.048 135.355L175.646 98.4647Z" fill="#342E2E"></path> <path d="M211.402 98.4647L200.907 90.1914L185.309 127.082L195.804 135.355L211.402 98.4647Z" fill="#342E2E"></path> <path d="M247.157 98.4647L236.662 90.1914L221.064 127.082L231.558 135.355L247.157 98.4647Z" fill="#342E2E"></path> <path d="M282.911 98.4647L272.417 90.1914L256.819 127.082L267.313 135.355L282.911 98.4647Z" fill="#342E2E"></path> <path d="M318.667 98.4647L308.173 90.1914L292.575 127.082L303.069 135.355L318.667 98.4647Z" fill="#342E2E"></path> </mask> <g mask="url(#mask0)"> <path d="M315.554 96.8477H14.0498C8.52696 96.8477 4.0498 101.325 4.0498 106.848V118.044C4.0498 123.567 8.52696 128.044 14.0498 128.044H315.554C321.077 128.044 325.554 123.567 325.554 118.044V106.848C325.554 101.325 321.077 96.8477 315.554 96.8477Z" fill="#E2A4FF"></path> <path d="M327.996 53.395L23.0185 8.10562C17.5555 7.29437 12.0841 10.9907 10.7977 16.3617L3.21785 48.0079C1.93142 53.3788 5.31715 58.3905 10.7801 59.2017L315.758 104.491C321.221 105.302 326.692 101.606 327.979 96.2351L335.558 64.5889C336.845 59.2179 333.459 54.2063 327.996 53.395Z" fill="#7D82ED"></path> </g> <mask id="mask1" mask-type="alpha" maskUnits="userSpaceOnUse" x="18" y="2" width="310" height="112"> <path d="M84.4972 21.4255L77.3223 6.86328L48.7305 62.8817L55.9054 77.4439L84.4972 21.4255Z" fill="#342E2E"></path> <path d="M54.0568 16.9528L46.8818 2.39062L18.29 58.4091L25.465 72.9713L54.0568 16.9528Z" fill="#342E2E"></path> <path d="M119.218 26.5388L112.043 11.9766L83.4512 67.995L90.6261 82.5572L119.218 26.5388Z" fill="#342E2E"></path> <path d="M153.937 31.6482L146.762 17.0859L118.17 73.1044L125.345 87.6666L153.937 31.6482Z" fill="#342E2E"></path> <path d="M188.654 36.7536L181.479 22.1914L152.888 78.2098L160.063 92.7721L188.654 36.7536Z" fill="#342E2E"></path> <path d="M223.375 41.863L216.2 27.3008L187.608 83.3192L194.783 97.8814L223.375 41.863Z" fill="#342E2E"></path> <path d="M258.095 46.9724L250.92 32.4102L222.328 88.4286L229.503 102.991L258.095 46.9724Z" fill="#342E2E"></path> <path d="M292.816 52.0778L285.641 37.5156L257.049 93.5341L264.224 108.096L292.816 52.0778Z" fill="#342E2E"></path> <path d="M327.533 57.1833L320.358 42.6211L291.767 98.6395L298.942 113.202L327.533 57.1833Z" fill="#342E2E"></path> </mask> <g mask="url(#mask1)"> <path d="M324.916 54.1659L32.5136 11.1432C27.0496 10.3392 21.6131 14.0499 20.3709 19.4313L13.4991 49.2001C12.2569 54.5815 15.6793 59.5956 21.1434 60.3996L313.546 103.422C319.01 104.226 324.447 100.516 325.689 95.1343L332.561 65.3654C333.803 59.9841 330.38 54.9699 324.916 54.1659Z" fill="#E2A4FF"></path> </g> <defs> <linearGradient id="paint0_linear" x1="271.562" y1="-62.5585" x2="164.802" y2="274.214" gradientUnits="userSpaceOnUse"> <stop stop-color="white"></stop> <stop offset="1" stop-color="white" stop-opacity="0"></stop> </linearGradient> </defs> </svg> 